<svg viewBox="0 0 1200 900" xmlns="http://www.w3.org/2000/svg">
  <!-- Title -->
  <text x="600" y="30" text-anchor="middle" font-size="24" font-weight="bold">JuaJobs Entity Relationship Diagram</text>
  
  <!-- Users Entity -->
  <g id="users">
    <rect x="50" y="60" width="200" height="280" fill="#e3f2fd" stroke="#1976d2" stroke-width="2"/>
    <rect x="50" y="60" width="200" height="40" fill="#1976d2"/>
    <text x="150" y="85" text-anchor="middle" fill="white" font-weight="bold">Users</text>
    <text x="60" y="120" font-size="12">PK id: uuid</text>
    <text x="60" y="140" font-size="12">email: string</text>
    <text x="60" y="160" font-size="12">phone: string</text>
    <text x="60" y="180" font-size="12">first_name: string</text>
    <text x="60" y="200" font-size="12">last_name: string</text>
    <text x="60" y="220" font-size="12">user_type: enum</text>
    <text x="60" y="240" font-size="12">profile_picture_url: string</text>
    <text x="60" y="260" font-size="12">email_verified: boolean</text>
    <text x="60" y="280" font-size="12">phone_verified: boolean</text>
    <text x="60" y="300" font-size="12">preferred_language: string</text>
    <text x="60" y="320" font-size="12">created_at: datetime</text>
  </g>
  
  <!-- Jobs Entity -->
  <g id="jobs">
    <rect x="350" y="60" width="200" height="300" fill="#e8f5e9" stroke="#388e3c" stroke-width="2"/>
    <rect x="350" y="60" width="200" height="40" fill="#388e3c"/>
    <text x="450" y="85" text-anchor="middle" fill="white" font-weight="bold">Jobs</text>
    <text x="360" y="120" font-size="12">PK id: uuid</text>
    <text x="360" y="140" font-size="12">title: string</text>
    <text x="360" y="160" font-size="12">description: text</text>
    <text x="360" y="180" font-size="12">FK company_id: uuid</text>
    <text x="360" y="200" font-size="12">location: json</text>
    <text x="360" y="220" font-size="12">salary: json</text>
    <text x="360" y="240" font-size="12">employment_type: enum</text>
    <text x="360" y="260" font-size="12">experience_level: enum</text>
    <text x="360" y="280" font-size="12">skills_required: array</text>
    <text x="360" y="300" font-size="12">posted_at: datetime</text>
    <text x="360" y="320" font-size="12">expires_at: datetime</text>
    <text x="360" y="340" font-size="12">status: enum</text>
  </g>
  
  <!-- Companies Entity -->
  <g id="companies">
    <rect x="650" y="60" width="200" height="240" fill="#fff3e0" stroke="#f57c00" stroke-width="2"/>
    <rect x="650" y="60" width="200" height="40" fill="#f57c00"/>
    <text x="750" y="85" text-anchor="middle" fill="white" font-weight="bold">Companies</text>
    <text x="660" y="120" font-size="12">PK id: uuid</text>
    <text x="660" y="140" font-size="12">name: string</text>
    <text x="660" y="160" font-size="12">description: text</text>
    <text x="660" y="180" font-size="12">industry: string</text>
    <text x="660" y="200" font-size="12">size: enum</text>
    <text x="660" y="220" font-size="12">website: string</text>
    <text x="660" y="240" font-size="12">logo_url: string</text>
    <text x="660" y="260" font-size="12">verified: boolean</text>
    <text x="660" y="280" font-size="12">created_at: datetime</text>
  </g>
  
  <!-- Applications Entity -->
  <g id="applications">
    <rect x="50" y="400" width="200" height="220" fill="#fce4ec" stroke="#c2185b" stroke-width="2"/>
    <rect x="50" y="400" width="200" height="40" fill="#c2185b"/>
    <text x="150" y="425" text-anchor="middle" fill="white" font-weight="bold">Applications</text>
    <text x="60" y="460" font-size="12">PK id: uuid</text>
    <text x="60" y="480" font-size="12">FK job_id: uuid</text>
    <text x="60" y="500" font-size="12">FK applicant_id: uuid</text>
    <text x="60" y="520" font-size="12">cover_letter: text</text>
    <text x="60" y="540" font-size="12">resume_url: string</text>
    <text x="60" y="560" font-size="12">status: enum</text>
    <text x="60" y="580" font-size="12">applied_at: datetime</text>
    <text x="60" y="600" font-size="12">updated_at: datetime</text>
  </g>
  
  <!-- Skills Entity -->
  <g id="skills">
    <rect x="350" y="400" width="200" height="180" fill="#f3e5f5" stroke="#7b1fa2" stroke-width="2"/>
    <rect x="350" y="400" width="200" height="40" fill="#7b1fa2"/>
    <text x="450" y="425" text-anchor="middle" fill="white" font-weight="bold">Skills</text>
    <text x="360" y="460" font-size="12">PK id: uuid</text>
    <text x="360" y="480" font-size="12">name: string</text>
    <text x="360" y="500" font-size="12">category: string</text>
    <text x="360" y="520" font-size="12">description: text</text>
    <text x="360" y="540" font-size="12">related_skills: array</text>
    <text x="360" y="560" font-size="12">popularity_score: integer</text>
  </g>
  
  <!-- Notifications Entity -->
  <g id="notifications">
    <rect x="650" y="400" width="200" height="200" fill="#e0f2f1" stroke="#00796b" stroke-width="2"/>
    <rect x="650" y="400" width="200" height="40" fill="#00796b"/>
    <text x="750" y="425" text-anchor="middle" fill="white" font-weight="bold">Notifications</text>
    <text x="660" y="460" font-size="12">PK id: uuid</text>
    <text x="660" y="480" font-size="12">FK user_id: uuid</text>
    <text x="660" y="500" font-size="12">type: enum</text>
    <text x="660" y="520" font-size="12">title: string</text>
    <text x="660" y="540" font-size="12">content: text</text>
    <text x="660" y="560" font-size="12">read: boolean</text>
    <text x="660" y="580" font-size="12">created_at: datetime</text>
  </g>
  
  <!-- Reviews Entity -->
  <g id="reviews">
    <rect x="950" y="60" width="200" height="220" fill="#efebe9" stroke="#5d4037" stroke-width="2"/>
    <rect x="950" y="60" width="200" height="40" fill="#5d4037"/>
    <text x="1050" y="85" text-anchor="middle" fill="white" font-weight="bold">Reviews</text>
    <text x="960" y="120" font-size="12">PK id: uuid</text>
    <text x="960" y="140" font-size="12">FK reviewer_id: uuid</text>
    <text x="960" y="160" font-size="12">FK reviewee_id: uuid</text>
    <text x="960" y="180" font-size="12">review_type: enum</text>
    <text x="960" y="200" font-size="12">rating: decimal</text>
    <text x="960" y="220" font-size="12">title: string</text>
    <text x="960" y="240" font-size="12">content: text</text>
    <text x="960" y="260" font-size="12">created_at: datetime</text>
  </g>
  
  <!-- Job_Skills Junction Table -->
  <g id="job_skills">
    <rect x="350" y="650" width="200" height="100" fill="#fff9c4" stroke="#f9a825" stroke-width="2"/>
    <rect x="350" y="650" width="200" height="40" fill="#f9a825"/>
    <text x="450" y="675" text-anchor="middle" fill="white" font-weight="bold">Job_Skills</text>
    <text x="360" y="710" font-size="12">FK job_id: uuid</text>
    <text x="360" y="730" font-size="12">FK skill_id: uuid</text>
  </g>
  
  <!-- Relationships -->
  <!-- Users to Applications -->
  <line x1="150" y1="340" x2="150" y2="400" stroke="#333" stroke-width="2"/>
  <text x="160" y="370" font-size="12">1:N</text>
  
  <!-- Jobs to Applications -->
  <line x1="250" y1="510" x2="350" y2="360" stroke="#333" stroke-width="2"/>
  <text x="290" y="435" font-size="12">1:N</text>
  
  <!-- Companies to Jobs -->
  <line x1="550" y1="210" x2="650" y2="180" stroke="#333" stroke-width="2"/>
  <text x="590" y="195" font-size="12">1:N</text>
  
  <!-- Users to Notifications -->
  <line x1="250" y1="200" x2="650" y2="500" stroke="#333" stroke-width="2"/>
  <text x="450" y="350" font-size="12">1:N</text>
  
  <!-- Users to Reviews (Reviewer) -->
  <line x1="250" y1="150" x2="950" y2="150" stroke="#333" stroke-width="2"/>
  <text x="600" y="140" font-size="12">1:N (reviewer)</text>
  
  <!-- Users to Reviews (Reviewee) -->
  <line x1="250" y1="170" x2="950" y2="170" stroke="#333" stroke-width="2"/>
  <text x="600" y="185" font-size="12">1:N (reviewee)</text>
  
  <!-- Jobs to Job_Skills -->
  <line x1="450" y1="360" x2="450" y2="650" stroke="#333" stroke-width="2"/>
  <text x="460" y="505" font-size="12">1:N</text>
  
  <!-- Skills to Job_Skills -->
  <line x1="450" y1="580" x2="450" y2="650" stroke="#333" stroke-width="2"/>
  <text x="460" y="615" font-size="12">1:N</text>
  
  <!-- Legend -->
  <g id="legend">
    <rect x="950" y="700" width="200" height="120" fill="#f5f5f5" stroke="#333" stroke-width="1"/>
    <text x="1050" y="720" text-anchor="middle" font-weight="bold">Legend</text>
    <text x="960" y="740" font-size="12">PK = Primary Key</text>
    <text x="960" y="760" font-size="12">FK = Foreign Key</text>
    <text x="960" y="780" font-size="12">1:N = One to Many</text>
    <text x="960" y="800" font-size="12">N:M = Many to Many</text>
  </g>
</svg>